<svg width="15" height="17" viewBox="0 0 15 17" fill="none" xmlns="http://www.w3.org/2000/svg">
<path d="M0.75 11.7344L3.75 8.73438C4.125 8.32812 4.78125 8.32812 5.15625 8.73438C5.5625 9.10938 5.5625 9.76562 5.15625 10.1406L3.875 11.4219H13.4375C14 11.4219 14.4375 11.8906 14.4375 12.4219C14.4375 12.9844 14 13.4219 13.4375 13.4219H3.875L5.15625 14.7344C5.5625 15.1094 5.5625 15.7656 5.15625 16.1406C4.78125 16.5469 4.125 16.5469 3.75 16.1406L0.75 13.1406C0.34375 12.7656 0.34375 12.1094 0.75 11.7344ZM11.1563 0.734375L14.1562 3.73438C14.5625 4.10938 14.5625 4.76563 14.1562 5.14063L11.1562 8.14062C10.7812 8.54688 10.125 8.54688 9.75 8.14062C9.34375 7.76562 9.34375 7.10938 9.75 6.73438L11.0312 5.42188H1.4375C0.90625 5.42188 0.4375 4.98438 0.4375 4.42188C0.4375 3.89062 0.90625 3.42188 1.4375 3.42188H11.0312L9.75 2.14062C9.34375 1.76562 9.34375 1.10938 9.75 0.734375C10.125 0.328125 10.7813 0.328125 11.1563 0.734375Z" fill="#00A9DE"/>
</svg>
