<svg width="106" height="29" viewBox="0 0 106 29" fill="none" xmlns="http://www.w3.org/2000/svg">
<path d="M8.51078 5.09189C10.1194 5.09189 11.6165 5.4705 12.9068 6.17595L13.0202 6.23905L13.0914 6.27998L13.0915 5.57396H16.8639V20.749C16.8639 25.3498 13.6338 28.4219 8.88387 28.4219C4.80771 28.4219 1.61001 26.0915 0.994128 22.6661L0.976257 22.5619L0.824366 21.6328H4.64103L4.78201 22.2671C5.13718 23.8651 6.68365 24.9169 8.88387 24.9169C11.4223 24.9169 13.0271 23.3735 13.0599 20.8288L13.0604 20.749V19.9455H13.0914V19.9122L13.0202 19.9533C11.7762 20.6586 10.3338 21.0557 8.78067 21.0969L8.63475 21.0997L8.51078 21.1005C3.99805 21.1005 0.4375 17.5365 0.4375 13.1565C0.4375 8.59567 3.93785 5.09189 8.51078 5.09189ZM44.939 0.421875L44.9389 5.57396H50.3799V8.95846H44.9389L44.939 15.2956C44.939 17.3068 45.5443 18.0123 47.1848 18.0461L47.2484 18.0471L47.3123 18.0474C47.9031 18.0474 48.6642 17.9353 49.3867 17.7492L49.5138 17.7156L50.3863 17.4789L51.0327 20.8386L50.3071 21.0395C48.9617 21.412 48.0413 21.5524 46.9703 21.5524C43.2294 21.5524 41.2073 19.3775 41.1672 15.4162L41.1666 15.2956L41.1665 8.95846H37.3424V5.57396H41.1665L41.1666 0.421875H44.939ZM28.1292 5.21241C29.6996 5.21241 31.1215 5.5689 32.3489 6.24669L32.46 6.30919L32.4922 6.32799L32.4922 5.57396H36.2646V21.1005H32.4922L32.4922 20.3764L32.46 20.3954C31.2766 21.0741 29.9077 21.4494 28.3955 21.4887L28.2533 21.4914L28.1292 21.4922C23.551 21.4922 19.8693 17.8626 19.8693 13.3372C19.8693 8.83685 23.5562 5.21241 28.1292 5.21241ZM28.409 8.62704C25.7586 8.62704 23.6728 10.7352 23.6728 13.3372C23.6728 15.9655 25.7547 18.0775 28.409 18.0775C30.0409 18.0775 31.4444 17.4109 32.4677 16.1205L32.4922 16.0888V10.6156L32.4677 10.5841C31.4641 9.31853 30.0947 8.65291 28.5029 8.62778L28.409 8.62704ZM60.7746 5.21241C65.3156 5.21241 68.5646 8.61917 68.5992 13.277L68.5987 13.4868C68.5969 13.8072 68.5897 13.9914 68.5676 14.1978L68.4811 14.9542H56.4631L56.4844 15.0239C57.0529 16.8488 58.5811 18.0438 60.6671 18.1052L60.7556 18.1071L60.8368 18.1077C62.4752 18.1077 63.6985 17.4881 64.2266 16.4812L64.2547 16.4259L64.48 15.9685H68.4633L68.0883 17.0318C67.1224 19.7703 64.2657 21.4922 60.7746 21.4922C55.9938 21.4922 52.4837 17.9702 52.4837 13.3372C52.4837 8.72945 55.999 5.21241 60.7746 5.21241ZM8.7906 8.50652C6.16857 8.50652 4.24096 10.4965 4.24096 13.1565C4.24096 15.6356 6.22694 17.6859 8.7906 17.6859C10.508 17.6859 12.0286 16.9806 13.066 15.6455L13.0914 15.612V10.5802L13.066 10.5468C12.0478 9.23649 10.5641 8.53286 8.8858 8.50725L8.7906 8.50652ZM60.7124 8.59691C58.6322 8.59691 57.0696 9.81396 56.488 11.6717L56.4639 11.7504H64.6574L64.6434 11.6927C64.1617 9.78861 62.7551 8.62658 60.7884 8.59747L60.7124 8.59691Z" fill="#3D4C51"/>
<path d="M79.159 5.27582C79.1937 5.27582 79.2284 5.27604 79.263 5.27647L89.6418 5.27668L87.8637 8.89217L85.8519 8.89224C86.5952 10.0562 87.0243 11.4284 87.0243 12.8978C87.0243 12.9458 87.0238 12.9937 87.0229 13.0415L87.0243 13.0415V20.0598C87.0243 24.2879 83.4923 27.7169 79.1337 27.7169C76.5521 27.7169 74.1787 26.503 72.7095 24.5067L72.648 24.4218L75.7143 22.3622C76.4887 23.4449 77.7529 24.1014 79.1337 24.1014C81.4063 24.1014 83.2545 22.3301 83.2928 20.1294L83.2934 20.0598L83.2934 19.383C82.0921 20.1038 80.6757 20.5198 79.159 20.5198C74.8151 20.5198 71.2937 17.1073 71.2937 12.8978C71.2937 8.68829 74.8151 5.27582 79.159 5.27582ZM97.8136 5.27582C102.157 5.27582 105.679 8.68829 105.679 12.8978C105.679 17.1073 102.157 20.5198 97.8136 20.5198C93.4697 20.5198 89.9483 17.1073 89.9483 12.8978C89.9483 8.68829 93.4697 5.27582 97.8136 5.27582ZM79.246 8.89218H79.072C76.8288 8.93706 75.0246 10.7132 75.0246 12.8978C75.0246 15.1105 76.8756 16.9043 79.159 16.9043C81.4423 16.9043 83.2934 15.1105 83.2934 12.8978C83.2934 10.7132 81.4892 8.93706 79.246 8.89218ZM97.8136 8.89131C95.5302 8.89131 93.6792 10.6851 93.6792 12.8978C93.6792 15.1105 95.5302 16.9043 97.8136 16.9043C100.097 16.9043 101.948 15.1105 101.948 12.8978C101.948 10.6851 100.097 8.89131 97.8136 8.89131Z" fill="#00A9DE"/>
</svg>
