<svg width="17" height="17" viewBox="0 0 17 17" fill="none" xmlns="http://www.w3.org/2000/svg">
<path d="M8.4375 16.4219C4 16.4219 0.4375 12.8594 0.4375 8.42188C0.4375 4.01562 4 0.421875 8.4375 0.421875C12.8438 0.421875 16.4375 4.01562 16.4375 8.42188C16.4375 12.8594 12.8438 16.4219 8.4375 16.4219ZM8.4375 4.42188C8 4.42188 7.6875 4.76562 7.6875 5.17188V8.67188C7.6875 9.10938 8 9.42188 8.4375 9.42188C8.84375 9.42188 9.1875 9.10938 9.1875 8.67188V5.17188C9.1875 4.76562 8.84375 4.42188 8.4375 4.42188ZM9.4375 11.4219C9.4375 10.8906 8.96875 10.4219 8.4375 10.4219C7.875 10.4219 7.4375 10.8906 7.4375 11.4219C7.4375 11.9844 7.875 12.4219 8.4375 12.4219C8.96875 12.4219 9.4375 11.9844 9.4375 11.4219Z" fill="#AAB0B3"/>
</svg>
