<svg width="18" height="11" viewBox="0 0 18 11" fill="none" xmlns="http://www.w3.org/2000/svg">
<path d="M0.941761 10.4219V0.240057H7.46449V1.78622H2.78622V4.55043H7.01705V6.09659H2.78622V10.4219H0.941761ZM12.5952 10.4219H9.14489V0.240057H12.6648C13.6757 0.240057 14.544 0.443892 15.2699 0.851562C15.9991 1.25592 16.5592 1.83759 16.9503 2.59659C17.3414 3.35559 17.5369 4.26373 17.5369 5.32102C17.5369 6.38163 17.3397 7.29309 16.9453 8.0554C16.5542 8.81771 15.9891 9.4027 15.25 9.81037C14.5142 10.218 13.6293 10.4219 12.5952 10.4219ZM10.9893 8.82599H12.5057C13.215 8.82599 13.8066 8.69673 14.2805 8.43821C14.7545 8.17637 15.1108 7.78693 15.3494 7.26989C15.5881 6.74953 15.7074 6.09991 15.7074 5.32102C15.7074 4.54214 15.5881 3.89583 15.3494 3.3821C15.1108 2.86506 14.7578 2.47893 14.2905 2.22372C13.8265 1.9652 13.2498 1.83594 12.5604 1.83594H10.9893V8.82599Z" fill="#00A9DE"/>
</svg>
