<svg width="25" height="25" viewBox="0 0 25 25" fill="none" xmlns="http://www.w3.org/2000/svg">
<g clip-path="url(#clip0_1_616)">
<path d="M22.4969 5.36248C23.0828 5.94841 23.0828 6.89998 22.4969 7.48591L17.9969 11.9859C17.411 12.5718 16.4594 12.5718 15.8735 11.9859C15.2875 11.4 15.2875 10.4484 15.8735 9.86248L17.8141 7.92185L3.43751 7.92185C2.60782 7.92185 1.93751 7.25154 1.93751 6.42185C1.93751 5.59216 2.60782 4.92185 3.43751 4.92185L17.8141 4.92185L15.8781 2.98123C15.2922 2.39529 15.2922 1.44373 15.8781 0.857788C16.4641 0.271851 17.4156 0.271851 18.0016 0.857788L22.5016 5.35779L22.4969 5.36248Z" fill="#00A9DE"/>
<path opacity="0.4" d="M2.37812 17.3625C1.79219 17.9484 1.79219 18.9 2.37812 19.4859L6.87812 23.9859C7.46406 24.5719 8.41563 24.5719 9.00156 23.9859C9.5875 23.4 9.5875 22.4484 9.00156 21.8625L7.06094 19.9219H21.4375C22.2672 19.9219 22.9375 19.2515 22.9375 18.4219C22.9375 17.5922 22.2672 16.9219 21.4375 16.9219H7.06094L9.00156 14.9812C9.5875 14.3953 9.5875 13.4437 9.00156 12.8578C8.41563 12.2719 7.46406 12.2719 6.87812 12.8578L2.37812 17.3578V17.3625Z" fill="#6BCDEC"/>
</g>
<defs>
<clipPath id="clip0_1_616">
<rect width="24" height="24" fill="white" transform="matrix(0 1 -1 0 24.4375 0.421875)"/>
</clipPath>
</defs>
</svg>
