<svg width="21" height="21" viewBox="0 0 21 21" fill="none" xmlns="http://www.w3.org/2000/svg">
<g clip-path="url(#clip0_1_609)">
<path d="M9.70486 2.17846C10.0938 1.81189 10.75 1.81189 11.1701 2.17846L20.059 9.95561C20.5208 10.3619 20.566 11.0632 20.1632 11.5251C19.7569 11.9869 19.0556 12.032 18.5938 11.6292L10.4375 4.49103L2.28021 11.6292C1.8184 12.032 1.11667 11.9869 0.712397 11.5251C0.308334 11.0632 0.35514 10.3619 0.817015 9.95561L9.70486 2.17846Z" fill="white"/>
<path opacity="0.4" d="M10.4375 4.49084L18.2187 11.2992L18.2326 17.4554C18.2361 18.6846 17.2396 19.6811 16.0104 19.6811H4.8854C3.65762 19.6811 2.66283 18.6881 2.66214 17.4589L2.6604 11.2957L10.4375 4.49084Z" fill="white"/>
</g>
<defs>
<clipPath id="clip0_1_609">
<rect width="20" height="20" fill="white" transform="translate(0.4375 0.421875)"/>
</clipPath>
</defs>
</svg>
