<svg width="19" height="25" viewBox="0 0 19 25" fill="none" xmlns="http://www.w3.org/2000/svg">
<g clip-path="url(#clip0_1_623)">
<path d="M11.6875 9.42188C11.6875 10.6641 10.6797 11.6719 9.4375 11.6719C8.19531 11.6719 7.1875 10.6641 7.1875 9.42188C7.1875 8.17969 8.19531 7.17188 9.4375 7.17188C10.6797 7.17188 11.6875 8.17969 11.6875 9.42188Z" fill="#00A9DE"/>
<path opacity="0.4" d="M8.32656 23.8219C5.87969 20.8125 0.4375 13.5188 0.4375 9.42188C0.4375 4.45125 4.46688 0.421875 9.4375 0.421875C14.4062 0.421875 18.4375 4.45125 18.4375 9.42188C18.4375 13.5188 12.9531 20.8125 10.5484 23.8219C9.97188 24.5391 8.90312 24.5391 8.32656 23.8219ZM9.4375 13.1719C11.5094 13.1719 13.1875 11.4937 13.1875 9.42188C13.1875 7.35 11.5094 5.67188 9.4375 5.67188C7.36562 5.67188 5.6875 7.35 5.6875 9.42188C5.6875 11.4937 7.36562 13.1719 9.4375 13.1719Z" fill="#6BCDEC"/>
</g>
<defs>
<clipPath id="clip0_1_623">
<rect width="18" height="24" fill="white" transform="translate(0.4375 0.421875)"/>
</clipPath>
</defs>
</svg>
