<svg width="13" height="17" viewBox="0 0 13 17" fill="none" xmlns="http://www.w3.org/2000/svg">
<path d="M7.15625 16.0469C6.78125 16.5156 6.0625 16.5156 5.6875 16.0469C4.09375 14.0156 0.4375 9.17188 0.4375 6.42188C0.4375 3.10938 3.125 0.421875 6.4375 0.421875C9.75 0.421875 12.4375 3.10938 12.4375 6.42188C12.4375 9.17188 8.78125 14.0156 7.15625 16.0469ZM6.4375 8.42188C7.53125 8.42188 8.4375 7.54688 8.4375 6.42188C8.4375 5.32812 7.53125 4.42188 6.4375 4.42188C5.3125 4.42188 4.4375 5.32812 4.4375 6.42188C4.4375 7.54688 5.3125 8.42188 6.4375 8.42188Z" fill="#00A9DE"/>
</svg>
