<svg width="16" height="16" viewBox="0 0 16 16" fill="none" xmlns="http://www.w3.org/2000/svg">
<path d="M4.875 4.39062C4.34375 4.95312 3.9375 5.57812 3.71875 6.26562C3.53125 6.79688 2.9375 7.07812 2.4375 6.89062C1.90625 6.70312 1.625 6.14062 1.8125 5.60938C2.15625 4.64062 2.71875 3.73438 3.46875 2.98438C6.1875 0.265625 10.5938 0.265625 13.3438 2.95312L14.6562 1.64062C14.8438 1.45312 15.1875 1.39062 15.4688 1.48438C15.75 1.60938 15.9375 1.89062 15.9375 2.17188V6.17188C15.9375 6.60938 15.5938 6.92188 15.1875 6.92188H14.9062H11.1875C10.875 6.92188 10.5938 6.76562 10.4688 6.48438C10.375 6.20312 10.4375 5.85938 10.6562 5.64062L11.9375 4.35938C9.96875 2.45312 6.84375 2.45312 4.875 4.39062ZM0.9375 9.67188C0.9375 9.26562 1.25 8.92188 1.6875 8.92188H1.90625H1.9375H5.6875C5.96875 8.92188 6.25 9.10938 6.375 9.39062C6.46875 9.67188 6.40625 10.0156 6.21875 10.2031L4.90625 11.5156C6.875 13.4219 10.0312 13.4219 11.9688 11.4844C12.5 10.9219 12.9062 10.2969 13.1562 9.60938C13.3125 9.07812 13.9062 8.79688 14.4062 8.98438C14.9375 9.17188 15.2188 9.73438 15.0312 10.2656C14.6875 11.2344 14.125 12.1094 13.375 12.8906C10.6562 15.6094 6.25 15.6094 3.5 12.9219L2.21875 14.2031C2 14.4219 1.65625 14.4844 1.375 14.3906C1.09375 14.2656 0.9375 13.9844 0.9375 13.6719V9.95312V9.92188V9.67188Z" fill="#00A9DE"/>
</svg>
