<svg width="25" height="25" viewBox="0 0 25 25" fill="none" xmlns="http://www.w3.org/2000/svg">
<g clip-path="url(#clip0_1_601)">
<path d="M23.6828 8.23125C23.8375 8.63438 23.7062 9.08906 23.3875 9.38437L21.3578 11.2313C21.4094 11.6203 21.4375 12.0188 21.4375 12.3797C21.4375 12.825 21.4094 13.2234 21.3578 13.6125L23.3875 15.4594C23.7062 15.7547 23.8375 16.2047 23.6828 16.6125C23.4766 17.1703 23.2281 17.7094 22.9469 18.2203L22.7266 18.6C22.4172 19.1156 22.0703 19.6031 21.6906 20.0672C21.4094 20.4 20.9547 20.5172 20.5422 20.3859L17.9312 19.5516C17.3031 20.0344 16.5672 20.4375 15.8687 20.7469L15.2828 23.4234C15.1891 23.8453 14.8609 24.1453 14.4297 24.2578C13.7828 24.3656 13.1172 24.4219 12.3953 24.4219C11.7578 24.4219 11.0922 24.3656 10.4453 24.2578C10.0141 24.1453 9.68593 23.8453 9.59218 23.4234L9.00625 20.7469C8.26562 20.4375 7.57187 20.0344 6.94375 19.5516L4.33468 20.3859C3.92031 20.5172 3.46328 20.4 3.18578 20.0672C2.80562 19.6031 2.45875 19.1156 2.14937 18.6L1.93 18.2203C1.64546 17.7094 1.39796 17.1703 1.19031 16.6125C1.03843 16.2094 1.1664 15.7547 1.48796 15.4594L3.51578 13.6125C3.46421 13.2234 3.4375 12.825 3.4375 12.4219C3.4375 12.0188 3.46421 11.6203 3.51578 11.2313L1.48796 9.38437C1.1664 9.08906 1.03843 8.63906 1.19031 8.23125C1.39796 7.67344 1.64593 7.13438 1.93 6.62344L2.1489 6.24375C2.45828 5.72812 2.80562 5.24062 3.18578 4.77891C3.46328 4.44375 3.92031 4.3275 4.33468 4.45969L6.94375 5.29219C7.57187 4.8075 8.26562 4.40438 9.00625 4.09828L9.59218 1.42172C9.68593 0.996094 10.0141 0.658125 10.4453 0.586406C11.0922 0.478172 11.7578 0.421875 12.3953 0.421875C13.1172 0.421875 13.7828 0.478172 14.4297 0.586406C14.8609 0.658125 15.1891 0.996094 15.2828 1.42172L15.8687 4.09828C16.5672 4.40438 17.3031 4.8075 17.9312 5.29219L20.5422 4.45969C20.9547 4.3275 21.4094 4.44375 21.6906 4.77891C22.0703 5.24062 22.4172 5.72812 22.7266 6.24375L22.9469 6.62344C23.2281 7.13438 23.4766 7.67344 23.6828 8.23125ZM12.4375 16.1719C14.5094 16.1719 16.1875 14.4938 16.1875 12.3797C16.1875 10.35 14.5094 8.62969 12.4375 8.62969C10.3656 8.62969 8.6875 10.35 8.6875 12.3797C8.6875 14.4938 10.3656 16.1719 12.4375 16.1719Z" fill="#00A9DE"/>
<path opacity="0.4" d="M14.6875 12.4219C14.6875 13.6641 13.6797 14.6719 12.4375 14.6719C11.1953 14.6719 10.1875 13.6641 10.1875 12.4219C10.1875 11.1797 11.1953 10.1719 12.4375 10.1719C13.6797 10.1719 14.6875 11.1797 14.6875 12.4219Z" fill="#6BCDEC"/>
</g>
<defs>
<clipPath id="clip0_1_601">
<rect width="24" height="24" fill="white" transform="translate(0.4375 0.421875)"/>
</clipPath>
</defs>
</svg>
