<svg width="17" height="17" viewBox="0 0 17 17" fill="none" xmlns="http://www.w3.org/2000/svg">
<path d="M8.4375 16.4219C4 16.4219 0.4375 12.8594 0.4375 8.42188C0.4375 4.01562 4 0.421875 8.4375 0.421875C12.8438 0.421875 16.4375 4.01562 16.4375 8.42188C16.4375 12.8594 12.8438 16.4219 8.4375 16.4219ZM9.4375 8.42188C9.4375 8.98438 8.96875 9.42188 8.4375 9.42188C7.875 9.42188 7.4375 8.98438 7.4375 8.42188C7.4375 7.89062 7.875 7.42188 8.4375 7.42188C8.96875 7.42188 9.4375 7.89062 9.4375 8.42188ZM8.90625 10.3594V10.3906C9.40625 10.2344 9.84375 9.92188 10.0938 9.51562L12.0312 10.1406C11.4688 11.3594 10.3125 12.2344 8.90625 12.3906V10.3594ZM10.4062 8.54688C10.4062 8.51562 10.4062 8.48438 10.4062 8.42188C10.4062 7.95312 10.25 7.51562 9.96875 7.17188L11.1562 5.51562C11.9375 6.23438 12.4062 7.29688 12.4062 8.42188C12.4062 8.70312 12.4062 8.95312 12.3438 9.20312L10.4062 8.54688ZM9.15625 6.57812C8.9375 6.48438 8.6875 6.42188 8.40625 6.42188C8.15625 6.42188 7.90625 6.48438 7.6875 6.57812L7.375 6.14062L6.5 4.92188C7.0625 4.60938 7.71875 4.42188 8.4375 4.42188C9.125 4.42188 9.78125 4.60938 10.3438 4.92188L9.15625 6.57812ZM5.6875 5.51562L6.5625 6.73438L6.875 7.17188C6.59375 7.51562 6.4375 7.95312 6.4375 8.42188C6.4375 8.48438 6.4375 8.51562 6.4375 8.54688L4.5 9.20312C4.4375 8.95312 4.4375 8.70312 4.4375 8.42188C4.4375 7.29688 4.90625 6.26562 5.6875 5.51562ZM6.75 9.51562C7 9.92188 7.4375 10.2344 7.90625 10.3594V12.3906C6.53125 12.2344 5.375 11.3594 4.8125 10.1406L6.75 9.51562ZM8.4375 13.4219C11.1875 13.4219 13.4375 11.2031 13.4375 8.42188C13.4375 5.67188 11.1875 3.42188 8.4375 3.42188C5.65625 3.42188 3.4375 5.67188 3.4375 8.42188C3.4375 11.2031 5.65625 13.4219 8.4375 13.4219Z" fill="#00A9DE"/>
</svg>
