<svg width="15" height="15" viewBox="0 0 15 15" fill="none" xmlns="http://www.w3.org/2000/svg">
<path d="M7.4375 14.1719C3.55469 14.1719 0.4375 11.0547 0.4375 7.17188C0.4375 3.31641 3.55469 0.171875 7.4375 0.171875C11.293 0.171875 14.4375 3.31641 14.4375 7.17188C14.4375 11.0547 11.293 14.1719 7.4375 14.1719ZM8.3125 7.17188C8.3125 7.66406 7.90234 8.04688 7.4375 8.04688C6.94531 8.04688 6.5625 7.66406 6.5625 7.17188C6.5625 6.70703 6.94531 6.29688 7.4375 6.29688C7.90234 6.29688 8.3125 6.70703 8.3125 7.17188ZM7.84766 8.86719V8.89453C8.28516 8.75781 8.66797 8.48438 8.88672 8.12891L10.582 8.67578C10.0898 9.74219 9.07812 10.5078 7.84766 10.6445V8.86719ZM9.16016 7.28125C9.16016 7.25391 9.16016 7.22656 9.16016 7.17188C9.16016 6.76172 9.02344 6.37891 8.77734 6.07812L9.81641 4.62891C10.5 5.25781 10.9102 6.1875 10.9102 7.17188C10.9102 7.41797 10.9102 7.63672 10.8555 7.85547L9.16016 7.28125ZM8.06641 5.55859C7.875 5.47656 7.65625 5.42188 7.41016 5.42188C7.19141 5.42188 6.97266 5.47656 6.78125 5.55859L6.50781 5.17578L5.74219 4.10938C6.23438 3.83594 6.80859 3.67188 7.4375 3.67188C8.03906 3.67188 8.61328 3.83594 9.10547 4.10938L8.06641 5.55859ZM5.03125 4.62891L5.79688 5.69531L6.07031 6.07812C5.82422 6.37891 5.6875 6.76172 5.6875 7.17188C5.6875 7.22656 5.6875 7.25391 5.6875 7.28125L3.99219 7.85547C3.9375 7.63672 3.9375 7.41797 3.9375 7.17188C3.9375 6.1875 4.34766 5.28516 5.03125 4.62891ZM5.96094 8.12891C6.17969 8.48438 6.5625 8.75781 6.97266 8.86719V10.6445C5.76953 10.5078 4.75781 9.74219 4.26562 8.67578L5.96094 8.12891ZM7.4375 11.5469C9.84375 11.5469 11.8125 9.60547 11.8125 7.17188C11.8125 4.76562 9.84375 2.79688 7.4375 2.79688C5.00391 2.79688 3.0625 4.76562 3.0625 7.17188C3.0625 9.60547 5.00391 11.5469 7.4375 11.5469Z" fill="#AAB0B3"/>
</svg>
