<svg width="21" height="15" viewBox="0 0 21 15" fill="none" xmlns="http://www.w3.org/2000/svg">
<path d="M1.9375 0.921875H15.9375C16.75 0.921875 17.4375 1.60938 17.4375 2.42188V9.92188H19.4375C19.9688 9.92188 20.4375 10.3906 20.4375 10.9219C20.4375 11.4844 19.9688 11.9219 19.4375 11.9219H15.9375H15.6875H9.375C9.15625 10.2344 7.6875 8.92188 5.9375 8.92188C4.15625 8.92188 2.6875 10.2344 2.46875 11.9219H1.9375C1.09375 11.9219 0.4375 11.2656 0.4375 10.4219V2.42188C0.4375 1.60938 1.09375 0.921875 1.9375 0.921875ZM2.9375 2.92188C2.65625 2.92188 2.4375 3.17188 2.4375 3.42188V8.20312C2.71875 7.95312 3.0625 7.73438 3.4375 7.54688V3.42188C3.4375 3.17188 3.1875 2.92188 2.9375 2.92188ZM5.9375 6.92188C6.09375 6.92188 6.25 6.95312 6.4375 6.95312V3.42188C6.4375 3.17188 6.1875 2.92188 5.9375 2.92188C5.65625 2.92188 5.4375 3.17188 5.4375 3.42188V6.95312C5.59375 6.95312 5.75 6.92188 5.9375 6.92188ZM8.4375 7.54688C8.78125 7.70312 9.125 7.95312 9.4375 8.20312V3.42188C9.4375 3.17188 9.1875 2.92188 8.9375 2.92188C8.65625 2.92188 8.4375 3.17188 8.4375 3.42188V7.54688ZM11.9375 2.92188C11.6562 2.92188 11.4375 3.17188 11.4375 3.42188V9.42188C11.4375 9.70312 11.6562 9.92188 11.9375 9.92188C12.1875 9.92188 12.4375 9.70312 12.4375 9.42188V3.42188C12.4375 3.17188 12.1875 2.92188 11.9375 2.92188ZM15.4375 3.42188C15.4375 3.17188 15.1875 2.92188 14.9375 2.92188C14.6562 2.92188 14.4375 3.17188 14.4375 3.42188V9.42188C14.4375 9.70312 14.6562 9.92188 14.9375 9.92188C15.1875 9.92188 15.4375 9.70312 15.4375 9.42188V3.42188ZM5.9375 14.9219C4.53125 14.9219 3.4375 13.8281 3.4375 12.4219C3.4375 11.0469 4.53125 9.92188 5.9375 9.92188C7.3125 9.92188 8.4375 11.0469 8.4375 12.4219C8.4375 13.8281 7.3125 14.9219 5.9375 14.9219ZM5.9375 13.4219C6.46875 13.4219 6.9375 12.9844 6.9375 12.4219C6.9375 11.8906 6.46875 11.4219 5.9375 11.4219C5.375 11.4219 4.9375 11.8906 4.9375 12.4219C4.9375 12.9844 5.375 13.4219 5.9375 13.4219Z" fill="#AAB0B3"/>
</svg>
