<svg width="18" height="15" viewBox="0 0 18 15" fill="none" xmlns="http://www.w3.org/2000/svg">
<path d="M17.9375 0.671875V11.6094C17.9375 13.3047 16.543 14.6719 14.875 14.6719C13.207 14.6719 11.8398 13.3594 11.8125 11.6914L1.75 14.4258C1.28516 14.5625 0.792969 14.2891 0.683594 13.8242C0.546875 13.3594 0.820312 12.8672 1.28516 12.7578L10.0625 10.3516V2.42188C10.0625 1.46484 10.8281 0.671875 11.8125 0.671875H17.9375ZM16.1875 11.6094C16.1875 10.8984 15.5859 10.2969 14.875 10.2969C14.1367 10.2969 13.5625 10.8984 13.5625 11.6094C13.5625 12.3477 14.1367 12.9219 14.875 12.9219C15.5859 12.9219 16.1875 12.3477 16.1875 11.6094ZM1.06641 6.35938C0.929688 5.89453 1.20312 5.42969 1.66797 5.29297L2.95312 4.96484L3.5 7.07031C3.58203 7.28906 3.80078 7.42578 4.04688 7.37109L4.89453 7.15234C5.11328 7.09766 5.25 6.85156 5.19531 6.60547L4.62109 4.5L5.90625 4.17188C6.37109 4.03516 6.83594 4.30859 6.97266 4.77344L8.09375 9.01172C8.23047 9.47656 7.95703 9.94141 7.49219 10.0781L3.25391 11.1992C2.78906 11.3359 2.32422 11.0625 2.1875 10.5977L1.06641 6.35938Z" fill="#00A9DE"/>
</svg>
