<svg width="21" height="17" viewBox="0 0 21 17" fill="none" xmlns="http://www.w3.org/2000/svg">
<path d="M1.9375 0.421875H11.9375C12.75 0.421875 13.4375 1.10938 13.4375 1.92188V3.42188H15C15.5312 3.42188 16.0625 3.64062 16.4375 4.01562L18.8438 6.42188C19.2188 6.79688 19.4375 7.32812 19.4375 7.85938V8.42188V9.42188V11.4219C19.9688 11.4219 20.4375 11.8906 20.4375 12.4219C20.4375 12.9844 19.9688 13.4219 19.4375 13.4219H18.4375C18.4375 15.0781 17.0938 16.4219 15.4375 16.4219C13.7812 16.4219 12.4375 15.0781 12.4375 13.4219H8.4375C8.4375 15.0781 7.09375 16.4219 5.4375 16.4219C3.78125 16.4219 2.4375 15.0781 2.4375 13.4219H1.9375C1.09375 13.4219 0.4375 12.7656 0.4375 11.9219V1.92188C0.4375 1.10938 1.09375 0.421875 1.9375 0.421875ZM13.4375 5.42188V8.42188H17.4375V7.85938L15 5.42188H13.4375ZM6.9375 13.4219C6.9375 12.6094 6.25 11.9219 5.4375 11.9219C4.59375 11.9219 3.9375 12.6094 3.9375 13.4219C3.9375 14.2656 4.59375 14.9219 5.4375 14.9219C6.25 14.9219 6.9375 14.2656 6.9375 13.4219ZM15.4375 14.9219C16.25 14.9219 16.9375 14.2656 16.9375 13.4219C16.9375 12.6094 16.25 11.9219 15.4375 11.9219C14.5938 11.9219 13.9375 12.6094 13.9375 13.4219C13.9375 14.2656 14.5938 14.9219 15.4375 14.9219Z" fill="#00A9DE"/>
</svg>
