<svg width="20" height="20" viewBox="0 0 20 20" fill="none" xmlns="http://www.w3.org/2000/svg">
<path d="M19.9375 10.1714C19.9375 10.7948 19.4359 11.2964 18.8125 11.2964H11.3125V18.7964C11.3125 19.4175 10.8086 19.9219 10.1875 19.9219C9.56641 19.9219 9.0625 19.4198 9.0625 18.7964V11.2964H1.5625C0.941406 11.2964 0.4375 10.793 0.4375 10.1719C0.4375 9.55266 0.941406 9.04641 1.5625 9.04641H9.0625V1.54641C9.0625 0.925313 9.56641 0.421875 10.1875 0.421875C10.8086 0.421875 11.3125 0.925313 11.3125 1.54641V9.04641H18.8125C19.4359 9.04641 19.9375 9.55266 19.9375 10.1714Z" fill="#00A9DE"/>
</svg>
