<svg width="17" height="17" viewBox="0 0 17 17" fill="none" xmlns="http://www.w3.org/2000/svg">
<path d="M11.4375 10.4219C10.8125 10.4219 10.25 10.3281 9.71875 10.1406L4.03125 15.8281C3.65625 16.2031 3.09375 16.4219 2.53125 16.4219C1.375 16.4219 0.4375 15.4844 0.4375 14.3281C0.4375 13.7656 0.65625 13.2031 1.03125 12.8281L6.71875 7.14062C6.53125 6.60938 6.4375 6.04688 6.4375 5.42188C6.4375 2.67188 8.65625 0.421875 11.4375 0.421875C11.9062 0.421875 12.375 0.515625 12.8125 0.640625C13.125 0.734375 13.2188 1.14062 12.9688 1.39062L10.5625 3.79688C10.4688 3.89062 10.4375 4.01562 10.4375 4.14062V5.92188C10.4375 6.20312 10.6562 6.42188 10.9375 6.42188H12.7188C12.8438 6.42188 12.9688 6.39062 13.0625 6.29688L15.4688 3.89062C15.7188 3.64062 16.125 3.70312 16.2188 4.04688C16.3438 4.48438 16.4375 4.95312 16.4375 5.42188C16.4375 8.20312 14.1875 10.4219 11.4375 10.4219ZM2.9375 14.6719C3.34375 14.6719 3.6875 14.3594 3.6875 13.9219C3.6875 13.5156 3.34375 13.1719 2.9375 13.1719C2.5 13.1719 2.1875 13.5156 2.1875 13.9219C2.1875 14.3594 2.5 14.6719 2.9375 14.6719Z" fill="#00A9DE"/>
</svg>
